<svg width="130" height="157" viewBox="0 0 130 157" fill="none" xmlns="http://www.w3.org/2000/svg">
<path d="M93.8028 39.0608L91.0145 27.2543L87.0931 10.6544L86.8707 9.71739V9.71509L85.3205 3.15111C85.0654 2.07649 84.4249 1.15472 83.5394 0.587999C82.6539 0.0212774 81.5958 -0.144108 80.5972 0.128129L70.2953 2.9485L5.92645 20.5775C4.92845 20.8522 4.07239 21.542 3.54607 22.4954C3.01975 23.4489 2.86617 24.5882 3.119 25.6634L5.34063 35.0708L10.9855 58.9668L13.1088 67.9575L13.2178 68.418H13.6882L13.5791 67.9575L11.55 59.3605V59.3582L5.66137 34.4331L3.56158 25.5437C3.33851 24.5946 3.47415 23.5889 3.93873 22.7473C4.40331 21.9056 5.15892 21.2968 6.03984 21.0541L70.2739 3.46194L80.7084 0.604728C81.5899 0.364532 82.5239 0.510563 83.3055 1.01079C84.0871 1.51102 84.6526 2.32461 84.878 3.27314L86.5243 10.24L86.7467 11.1863L90.5571 27.3188L93.3303 39.0608L93.4457 39.5535H93.9204L93.8028 39.0608Z" fill="#7E7E7E"/>
<path d="M24.5295 55.4589C30.6179 55.4589 35.5535 50.1444 35.5535 43.5886C35.5535 37.0328 30.6179 31.7183 24.5295 31.7183C18.441 31.7183 13.5054 37.0328 13.5054 43.5886C13.5054 50.1444 18.441 55.4589 24.5295 55.4589Z" fill="#66FFB6"/>
<path d="M49.5374 39.0607L50.0656 39.5534H41.6709C40.7616 39.5545 39.8898 39.9439 39.2468 40.6363C38.6039 41.3286 38.2422 42.2673 38.2412 43.2464V71.4179L38.1194 78.0878L32.7546 72.9213L32.2521 73.0595L28.275 69.2813C27.6896 68.7244 26.9351 68.4173 26.1539 68.4179H15.6895L15.8499 67.9575L17.941 61.9414L29.7975 27.8092L31.0163 24.3027C31.0912 24.0872 31.2134 23.8944 31.3726 23.7407C31.5317 23.5871 31.723 23.4772 31.9301 23.4204C32.1372 23.3636 32.3541 23.3617 32.562 23.4147C32.77 23.4677 32.963 23.5741 33.1245 23.7248L41.1022 31.1775L45.7977 35.5658L49.5374 39.0607Z" fill="#232222"/>
<path d="M84.4417 39.0608L84.972 39.5535H59.2834L59.4567 39.0608L64.9283 23.5084C65.0034 23.2936 65.1256 23.1015 65.2844 22.9484C65.4432 22.7953 65.6339 22.6858 65.8405 22.629C66.047 22.5723 66.2632 22.5701 66.4707 22.6226C66.6782 22.6751 66.8709 22.7807 67.0324 22.9306L77.9094 33.0102L78.5359 33.5881L84.4417 39.0608Z" fill="#232222"/>
<path d="M94.3997 43.8932C93.3977 43.8924 92.4093 44.142 91.5121 44.6223C90.6149 45.1027 89.8335 45.8007 89.2294 46.6614C88.581 46.3609 87.8734 46.2386 87.1703 46.3053C86.4671 46.372 85.7903 46.6256 85.2006 47.0435C84.6109 47.4614 84.1269 48.0304 83.7919 48.6995C83.4569 49.3685 83.2814 50.1167 83.2812 50.8768H100.885C100.885 49.9597 100.718 49.0516 100.392 48.2043C100.066 47.357 99.588 46.5871 98.9858 45.9386C98.3835 45.2901 97.6685 44.7757 96.8817 44.4248C96.0948 44.0738 95.2514 43.8932 94.3997 43.8932Z" fill="#313131"/>
<path d="M118.717 39.0608H41.6709C40.8041 39.0624 39.9624 39.3753 39.2793 39.9499C38.5961 40.5246 38.1105 41.3281 37.8992 42.2334V42.2357C37.8226 42.5663 37.7838 42.9057 37.7838 43.2464V78.3111L38.0339 78.5483L38.2413 78.7463V43.2464C38.2423 42.2673 38.6039 41.3286 39.2469 40.6363C39.8899 39.9439 40.7616 39.5545 41.6709 39.5535H118.717C119.627 39.5541 120.499 39.9434 121.142 40.6358C121.785 41.3283 122.146 42.2672 122.147 43.2464V85.9158H122.365C122.445 85.9149 122.525 85.9188 122.605 85.9273V43.2464C122.603 42.1368 122.193 41.0731 121.464 40.2885C120.736 39.5039 119.748 39.0624 118.717 39.0608Z" fill="#66656F"/>
<path d="M55.8338 71.2288C61.6021 71.2288 66.2783 66.1937 66.2783 59.9826C66.2783 53.7715 61.6021 48.7364 55.8338 48.7364C50.0654 48.7364 45.3893 53.7715 45.3893 59.9826C45.3893 66.1937 50.0654 71.2288 55.8338 71.2288Z" fill="#3A3A3C"/>
<path d="M118.803 85.9158H47.1662C46.281 85.913 45.4266 85.5654 44.7607 84.9373L43.1528 83.4108L43.3987 83.0286L43.8434 82.3379L63.1514 52.4052L65.1336 49.3315C65.2556 49.1424 65.4183 48.9878 65.6078 48.881C65.7973 48.7743 66.008 48.7185 66.2219 48.7185C66.4358 48.7185 66.6465 48.7743 66.8361 48.881C67.0256 48.9878 67.1883 49.1424 67.3103 49.3315L73.3358 58.6721V58.6744L76.881 64.1701L85.344 77.2889L98.1797 57.5601C98.3019 57.3719 98.4644 57.2182 98.6535 57.1121C98.8426 57.006 99.0527 56.9506 99.2659 56.9506C99.4792 56.9506 99.6892 57.006 99.8783 57.1121C100.067 57.2182 100.23 57.3719 100.352 57.5601L108.586 70.2138L109.059 70.9413L118.503 85.4553L118.803 85.9158Z" fill="#66FFB6"/>
<path opacity="0.5" d="M80.5377 55.5541C79.3016 55.5531 78.082 55.8611 76.9751 56.4537C75.8682 57.0464 74.9042 57.9075 74.1589 58.9695C73.3589 58.5988 72.4859 58.4478 71.6183 58.5301C70.7507 58.6124 69.9157 58.9253 69.1882 59.4409C68.4607 59.9565 67.8635 60.6585 67.4502 61.484C67.0369 62.3094 66.8204 63.2325 66.8202 64.1703H88.5396C88.5396 63.0388 88.3327 61.9184 87.9305 60.873C87.5284 59.8276 86.939 58.8778 86.1959 58.0777C85.4529 57.2776 84.5708 56.643 83.5999 56.21C82.6291 55.777 81.5886 55.5541 80.5377 55.5541Z" fill="#797575"/>
<g filter="url(#filter0_d_1_117)">
<mask id="path-10-inside-1_1_117" fill="white">
<path d="M43.1378 82.78L40.4779 80.2566L40.4715 80.252L40.4629 80.2451L40.4565 80.2382C40.3731 80.1737 40.2897 80.107 40.2085 80.0379C40.1871 80.0218 40.1679 80.0057 40.1486 79.9895C40.1379 79.9803 40.1293 79.9734 40.1187 79.9642C40.1144 79.9619 40.1122 79.9573 40.1079 79.955C40.0481 79.9044 39.9861 79.8514 39.9263 79.7984C39.8963 79.7754 39.8685 79.7501 39.8386 79.7248C39.7573 79.6534 39.6761 79.5797 39.5948 79.506C39.5093 79.4278 39.4238 79.3495 39.3383 79.2689C39.3361 79.2666 39.3318 79.2643 39.3297 79.262C39.3126 79.2459 39.2975 79.2298 39.2805 79.2159C39.1992 79.1377 39.118 79.0594 39.0367 78.9765C38.9683 78.9097 38.8999 78.8407 38.8336 78.7739C38.7716 78.7117 38.7095 78.6496 38.6497 78.5828L38.6369 78.569C38.592 78.523 38.5471 78.4746 38.5001 78.424C38.4551 78.3779 38.4124 78.3296 38.3696 78.2812C38.3247 78.2352 38.2819 78.1868 38.2413 78.1385L38.2071 78.1016L38.1964 78.0901L37.7838 77.6964V78.3111L38.0339 78.5483L38.2413 78.7463L42.6354 82.9181L43.048 83.3118L43.1528 83.4108L43.2512 83.2566L43.3987 83.0286L43.1378 82.78ZM106.998 85.4553C107.004 85.6073 107.015 85.7615 107.025 85.9158H122.147V85.4553H106.998ZM43.1378 82.78L40.4779 80.2566L40.4715 80.252L40.4629 80.2451L40.4565 80.2382C40.3731 80.1737 40.2897 80.107 40.2085 80.0379C40.1871 80.0218 40.1679 80.0057 40.1486 79.9895C40.1379 79.9803 40.1293 79.9734 40.1187 79.9642C40.1144 79.9619 40.1122 79.9573 40.1079 79.955C40.0481 79.9044 39.9861 79.8514 39.9263 79.7984C39.8963 79.7754 39.8685 79.7501 39.8386 79.7248C39.7573 79.6534 39.6761 79.5797 39.5948 79.506C39.5093 79.4278 39.4238 79.3495 39.3383 79.2689C39.3361 79.2666 39.3318 79.2643 39.3297 79.262C39.3126 79.2459 39.2975 79.2298 39.2805 79.2159C39.1992 79.1377 39.118 79.0594 39.0367 78.9765C38.9683 78.9097 38.8999 78.8407 38.8336 78.7739C38.7716 78.7117 38.7095 78.6496 38.6497 78.5828L38.6369 78.569C38.592 78.523 38.5471 78.4746 38.5001 78.424C38.4551 78.3779 38.4124 78.3296 38.3696 78.2812C38.3247 78.2352 38.2819 78.1868 38.2413 78.1385L38.2071 78.1016L38.1964 78.0901L37.7838 77.6964V78.3111L38.0339 78.5483L38.2413 78.7463L42.6354 82.9181L43.048 83.3118L43.1528 83.4108L43.2512 83.2566L43.3987 83.0286L43.1378 82.78ZM118.503 85.4553H106.998C107.004 85.6073 107.015 85.7615 107.025 85.9158H118.803L118.503 85.4553ZM43.1378 82.78L40.4779 80.2566L40.4715 80.252L40.4629 80.2451L40.4565 80.2382C40.3731 80.1737 40.2897 80.107 40.2085 80.0379C40.1871 80.0218 40.1679 80.0057 40.1486 79.9895C40.1379 79.9803 40.1293 79.9734 40.1187 79.9642C40.1144 79.9619 40.1122 79.9573 40.1079 79.955C40.0481 79.9044 39.9861 79.8514 39.9263 79.7984C39.8963 79.7754 39.8685 79.7501 39.8386 79.7248C39.7573 79.6534 39.6761 79.5797 39.5948 79.506C39.5093 79.4278 39.4238 79.3495 39.3383 79.2689C39.3361 79.2666 39.3318 79.2643 39.3297 79.262C39.3126 79.2459 39.2975 79.2298 39.2805 79.2159C39.1992 79.1377 39.118 79.0594 39.0367 78.9765C38.9683 78.9097 38.8999 78.8407 38.8336 78.7739C38.7716 78.7117 38.7095 78.6496 38.6497 78.5828L38.6369 78.569C38.592 78.523 38.5471 78.4746 38.5001 78.424C38.4551 78.3779 38.4124 78.3296 38.3696 78.2812C38.3247 78.2352 38.2819 78.1868 38.2413 78.1385L38.2071 78.1016L38.1964 78.0901L37.7838 77.6964V78.3111L38.0339 78.5483L38.2413 78.7463L42.6354 82.9181L43.048 83.3118L43.1528 83.4108L43.2512 83.2566L43.3987 83.0286L43.1378 82.78ZM32.7547 72.9213L28.5574 68.936C27.8939 68.3052 27.0391 67.9572 26.154 67.9575H13.5791L13.6882 68.418H26.154C26.9352 68.4173 27.6896 68.7244 28.2751 69.2813L32.2522 73.0595L37.7838 78.3111V77.6964L32.7547 72.9213ZM122.605 85.4645C122.525 85.4576 122.446 85.4553 122.365 85.4553H47.1662C46.4434 85.4562 45.7416 85.1933 45.1755 84.7093C45.1306 84.6725 45.0878 84.6334 45.0451 84.5919L43.5527 83.1737L43.3987 83.0286L43.1378 82.78L40.4779 80.2566L40.4715 80.252L40.4629 80.2451L40.4565 80.2382L38.6797 78.5483L38.2413 78.1316L38.2071 78.1016L38.1964 78.0901L37.7838 77.6964L32.7547 72.9213L28.5574 68.936C27.8939 68.3052 27.0391 67.9572 26.154 67.9575L7.75679 67.9575C6.79316 67.959 5.86938 68.3718 5.18799 69.1055C4.5066 69.8392 4.12319 70.8339 4.12183 71.8715V145.086C4.12319 146.124 4.5066 147.118 5.18799 147.852C5.86938 148.586 6.79316 148.999 7.75679 149H122.365C123.329 148.999 124.252 148.586 124.934 147.852C125.615 147.118 125.999 146.124 126 145.086V89.3693C125.998 88.3765 125.647 87.4212 125.017 86.6965C124.387 85.9717 123.525 85.5314 122.605 85.4645ZM125.572 145.086C125.571 146.002 125.233 146.879 124.632 147.527C124.031 148.174 123.215 148.538 122.365 148.54H7.75678C6.90647 148.538 6.09127 148.174 5.49001 147.527C4.88874 146.879 4.5505 146.002 4.54946 145.086V71.8715C4.5505 70.9559 4.88874 70.0781 5.49001 69.4307C6.09127 68.7833 6.90647 68.4191 7.75678 68.418H26.154C26.9352 68.4173 27.6896 68.7244 28.2751 69.2813L32.2522 73.0595L37.7838 78.3111L38.0339 78.5483L38.2413 78.7463L42.6354 82.9181L43.048 83.3118L43.1528 83.4108L44.7607 84.9373C45.4266 85.5654 46.281 85.913 47.1662 85.9158H122.365C122.445 85.915 122.525 85.9188 122.605 85.9273C123.411 85.9929 124.165 86.3839 124.715 87.0221C125.265 87.6602 125.571 88.4985 125.572 89.3693L125.572 145.086ZM43.1378 82.78L40.4779 80.2566L40.4715 80.252L40.4629 80.2451L40.4565 80.2382C40.3731 80.1737 40.2897 80.107 40.2085 80.0379C40.1871 80.0218 40.1679 80.0057 40.1486 79.9895C40.1379 79.9803 40.1293 79.9734 40.1187 79.9642C40.1144 79.9619 40.1122 79.9573 40.1079 79.955C40.0481 79.9044 39.9861 79.8514 39.9263 79.7984C39.8963 79.7754 39.8685 79.7501 39.8386 79.7248C39.7573 79.6534 39.6761 79.5797 39.5948 79.506C39.5093 79.4278 39.4238 79.3495 39.3383 79.2689C39.3361 79.2666 39.3318 79.2643 39.3297 79.262C39.3126 79.2459 39.2975 79.2298 39.2805 79.2159C39.1992 79.1377 39.118 79.0594 39.0367 78.9765C38.9683 78.9097 38.8999 78.8407 38.8336 78.7739C38.7716 78.7117 38.7095 78.6496 38.6497 78.5828L38.6369 78.569C38.592 78.523 38.5471 78.4746 38.5001 78.424C38.4551 78.3779 38.4124 78.3296 38.3696 78.2812C38.3247 78.2352 38.2819 78.1868 38.2413 78.1385L38.2071 78.1016L38.1964 78.0901L37.7838 77.6964V78.3111L38.0339 78.5483L38.2413 78.7463L42.6354 82.9181L43.048 83.3118L43.1528 83.4108L43.2512 83.2566L43.3987 83.0286L43.1378 82.78ZM106.998 85.4553C107.004 85.6073 107.015 85.7615 107.025 85.9158H122.147V85.4553H106.998ZM43.1378 82.78L40.4779 80.2566L40.4715 80.252L40.4629 80.2451L40.4565 80.2382C40.3731 80.1737 40.2897 80.107 40.2085 80.0379C40.1871 80.0218 40.1679 80.0057 40.1486 79.9895C40.1379 79.9803 40.1293 79.9734 40.1187 79.9642C40.1144 79.9619 40.1122 79.9573 40.1079 79.955C40.0481 79.9044 39.9861 79.8514 39.9263 79.7984C39.8963 79.7754 39.8685 79.7501 39.8386 79.7248C39.7573 79.6534 39.6761 79.5797 39.5948 79.506C39.5093 79.4278 39.4238 79.3495 39.3383 79.2689C39.3361 79.2666 39.3318 79.2643 39.3297 79.262C39.3126 79.2459 39.2975 79.2298 39.2805 79.2159C39.1992 79.1377 39.118 79.0594 39.0367 78.9765C38.9683 78.9097 38.8999 78.8407 38.8336 78.7739C38.7716 78.7117 38.7095 78.6496 38.6497 78.5828L38.6369 78.569C38.592 78.523 38.5471 78.4746 38.5001 78.424C38.4551 78.3779 38.4124 78.3296 38.3696 78.2812C38.3247 78.2352 38.2819 78.1868 38.2413 78.1385L38.2071 78.1016L38.1964 78.0901L37.7838 77.6964V78.3111L38.0339 78.5483L38.2413 78.7463L42.6354 82.9181L43.048 83.3118L43.1528 83.4108L43.2512 83.2566L43.3987 83.0286L43.1378 82.78ZM43.1378 82.78L40.4779 80.2566L40.4715 80.252L40.4629 80.2451L40.4565 80.2382C40.3731 80.1737 40.2897 80.107 40.2085 80.0379C40.1871 80.0218 40.1679 80.0057 40.1486 79.9895C40.1379 79.9803 40.1293 79.9734 40.1187 79.9642C40.1144 79.9619 40.1122 79.9573 40.1079 79.955C40.0481 79.9044 39.9861 79.8514 39.9263 79.7984C39.8963 79.7754 39.8685 79.7501 39.8386 79.7248C39.7573 79.6534 39.6761 79.5797 39.5948 79.506C39.5093 79.4278 39.4238 79.3495 39.3383 79.2689C39.3361 79.2666 39.3318 79.2643 39.3297 79.262C39.3126 79.2459 39.2975 79.2298 39.2805 79.2159C39.1992 79.1377 39.118 79.0594 39.0367 78.9765C38.9683 78.9097 38.8999 78.8407 38.8336 78.7739C38.7716 78.7117 38.7095 78.6496 38.6497 78.5828L38.6369 78.569C38.592 78.523 38.5471 78.4746 38.5001 78.424C38.4551 78.3779 38.4124 78.3296 38.3696 78.2812C38.3247 78.2352 38.2819 78.1868 38.2413 78.1385L38.2071 78.1016L38.1964 78.0901L37.7838 77.6964V78.3111L38.0339 78.5483L38.2413 78.7463L42.6354 82.9181L43.048 83.3118L43.1528 83.4108L43.2512 83.2566L43.3987 83.0286L43.1378 82.78ZM118.503 85.4553H106.998C107.004 85.6073 107.015 85.7615 107.025 85.9158H118.803L118.503 85.4553Z"/>
</mask>
<path d="M43.1378 82.78L40.4779 80.2566L40.4715 80.252L40.4629 80.2451L40.4565 80.2382C40.3731 80.1737 40.2897 80.107 40.2085 80.0379C40.1871 80.0218 40.1679 80.0057 40.1486 79.9895C40.1379 79.9803 40.1293 79.9734 40.1187 79.9642C40.1144 79.9619 40.1122 79.9573 40.1079 79.955C40.0481 79.9044 39.9861 79.8514 39.9263 79.7984C39.8963 79.7754 39.8685 79.7501 39.8386 79.7248C39.7573 79.6534 39.6761 79.5797 39.5948 79.506C39.5093 79.4278 39.4238 79.3495 39.3383 79.2689C39.3361 79.2666 39.3318 79.2643 39.3297 79.262C39.3126 79.2459 39.2975 79.2298 39.2805 79.2159C39.1992 79.1377 39.118 79.0594 39.0367 78.9765C38.9683 78.9097 38.8999 78.8407 38.8336 78.7739C38.7716 78.7117 38.7095 78.6496 38.6497 78.5828L38.6369 78.569C38.592 78.523 38.5471 78.4746 38.5001 78.424C38.4551 78.3779 38.4124 78.3296 38.3696 78.2812C38.3247 78.2352 38.2819 78.1868 38.2413 78.1385L38.2071 78.1016L38.1964 78.0901L37.7838 77.6964V78.3111L38.0339 78.5483L38.2413 78.7463L42.6354 82.9181L43.048 83.3118L43.1528 83.4108L43.2512 83.2566L43.3987 83.0286L43.1378 82.78ZM106.998 85.4553C107.004 85.6073 107.015 85.7615 107.025 85.9158H122.147V85.4553H106.998ZM43.1378 82.78L40.4779 80.2566L40.4715 80.252L40.4629 80.2451L40.4565 80.2382C40.3731 80.1737 40.2897 80.107 40.2085 80.0379C40.1871 80.0218 40.1679 80.0057 40.1486 79.9895C40.1379 79.9803 40.1293 79.9734 40.1187 79.9642C40.1144 79.9619 40.1122 79.9573 40.1079 79.955C40.0481 79.9044 39.9861 79.8514 39.9263 79.7984C39.8963 79.7754 39.8685 79.7501 39.8386 79.7248C39.7573 79.6534 39.6761 79.5797 39.5948 79.506C39.5093 79.4278 39.4238 79.3495 39.3383 79.2689C39.3361 79.2666 39.3318 79.2643 39.3297 79.262C39.3126 79.2459 39.2975 79.2298 39.2805 79.2159C39.1992 79.1377 39.118 79.0594 39.0367 78.9765C38.9683 78.9097 38.8999 78.8407 38.8336 78.7739C38.7716 78.7117 38.7095 78.6496 38.6497 78.5828L38.6369 78.569C38.592 78.523 38.5471 78.4746 38.5001 78.424C38.4551 78.3779 38.4124 78.3296 38.3696 78.2812C38.3247 78.2352 38.2819 78.1868 38.2413 78.1385L38.2071 78.1016L38.1964 78.0901L37.7838 77.6964V78.3111L38.0339 78.5483L38.2413 78.7463L42.6354 82.9181L43.048 83.3118L43.1528 83.4108L43.2512 83.2566L43.3987 83.0286L43.1378 82.78ZM118.503 85.4553H106.998C107.004 85.6073 107.015 85.7615 107.025 85.9158H118.803L118.503 85.4553ZM43.1378 82.78L40.4779 80.2566L40.4715 80.252L40.4629 80.2451L40.4565 80.2382C40.3731 80.1737 40.2897 80.107 40.2085 80.0379C40.1871 80.0218 40.1679 80.0057 40.1486 79.9895C40.1379 79.9803 40.1293 79.9734 40.1187 79.9642C40.1144 79.9619 40.1122 79.9573 40.1079 79.955C40.0481 79.9044 39.9861 79.8514 39.9263 79.7984C39.8963 79.7754 39.8685 79.7501 39.8386 79.7248C39.7573 79.6534 39.6761 79.5797 39.5948 79.506C39.5093 79.4278 39.4238 79.3495 39.3383 79.2689C39.3361 79.2666 39.3318 79.2643 39.3297 79.262C39.3126 79.2459 39.2975 79.2298 39.2805 79.2159C39.1992 79.1377 39.118 79.0594 39.0367 78.9765C38.9683 78.9097 38.8999 78.8407 38.8336 78.7739C38.7716 78.7117 38.7095 78.6496 38.6497 78.5828L38.6369 78.569C38.592 78.523 38.5471 78.4746 38.5001 78.424C38.4551 78.3779 38.4124 78.3296 38.3696 78.2812C38.3247 78.2352 38.2819 78.1868 38.2413 78.1385L38.2071 78.1016L38.1964 78.0901L37.7838 77.6964V78.3111L38.0339 78.5483L38.2413 78.7463L42.6354 82.9181L43.048 83.3118L43.1528 83.4108L43.2512 83.2566L43.3987 83.0286L43.1378 82.78ZM32.7547 72.9213L28.5574 68.936C27.8939 68.3052 27.0391 67.9572 26.154 67.9575H13.5791L13.6882 68.418H26.154C26.9352 68.4173 27.6896 68.7244 28.2751 69.2813L32.2522 73.0595L37.7838 78.3111V77.6964L32.7547 72.9213ZM122.605 85.4645C122.525 85.4576 122.446 85.4553 122.365 85.4553H47.1662C46.4434 85.4562 45.7416 85.1933 45.1755 84.7093C45.1306 84.6725 45.0878 84.6334 45.0451 84.5919L43.5527 83.1737L43.3987 83.0286L43.1378 82.78L40.4779 80.2566L40.4715 80.252L40.4629 80.2451L40.4565 80.2382L38.6797 78.5483L38.2413 78.1316L38.2071 78.1016L38.1964 78.0901L37.7838 77.6964L32.7547 72.9213L28.5574 68.936C27.8939 68.3052 27.0391 67.9572 26.154 67.9575L7.75679 67.9575C6.79316 67.959 5.86938 68.3718 5.18799 69.1055C4.5066 69.8392 4.12319 70.8339 4.12183 71.8715V145.086C4.12319 146.124 4.5066 147.118 5.18799 147.852C5.86938 148.586 6.79316 148.999 7.75679 149H122.365C123.329 148.999 124.252 148.586 124.934 147.852C125.615 147.118 125.999 146.124 126 145.086V89.3693C125.998 88.3765 125.647 87.4212 125.017 86.6965C124.387 85.9717 123.525 85.5314 122.605 85.4645ZM125.572 145.086C125.571 146.002 125.233 146.879 124.632 147.527C124.031 148.174 123.215 148.538 122.365 148.54H7.75678C6.90647 148.538 6.09127 148.174 5.49001 147.527C4.88874 146.879 4.5505 146.002 4.54946 145.086V71.8715C4.5505 70.9559 4.88874 70.0781 5.49001 69.4307C6.09127 68.7833 6.90647 68.4191 7.75678 68.418H26.154C26.9352 68.4173 27.6896 68.7244 28.2751 69.2813L32.2522 73.0595L37.7838 78.3111L38.0339 78.5483L38.2413 78.7463L42.6354 82.9181L43.048 83.3118L43.1528 83.4108L44.7607 84.9373C45.4266 85.5654 46.281 85.913 47.1662 85.9158H122.365C122.445 85.915 122.525 85.9188 122.605 85.9273C123.411 85.9929 124.165 86.3839 124.715 87.0221C125.265 87.6602 125.571 88.4985 125.572 89.3693L125.572 145.086ZM43.1378 82.78L40.4779 80.2566L40.4715 80.252L40.4629 80.2451L40.4565 80.2382C40.3731 80.1737 40.2897 80.107 40.2085 80.0379C40.1871 80.0218 40.1679 80.0057 40.1486 79.9895C40.1379 79.9803 40.1293 79.9734 40.1187 79.9642C40.1144 79.9619 40.1122 79.9573 40.1079 79.955C40.0481 79.9044 39.9861 79.8514 39.9263 79.7984C39.8963 79.7754 39.8685 79.7501 39.8386 79.7248C39.7573 79.6534 39.6761 79.5797 39.5948 79.506C39.5093 79.4278 39.4238 79.3495 39.3383 79.2689C39.3361 79.2666 39.3318 79.2643 39.3297 79.262C39.3126 79.2459 39.2975 79.2298 39.2805 79.2159C39.1992 79.1377 39.118 79.0594 39.0367 78.9765C38.9683 78.9097 38.8999 78.8407 38.8336 78.7739C38.7716 78.7117 38.7095 78.6496 38.6497 78.5828L38.6369 78.569C38.592 78.523 38.5471 78.4746 38.5001 78.424C38.4551 78.3779 38.4124 78.3296 38.3696 78.2812C38.3247 78.2352 38.2819 78.1868 38.2413 78.1385L38.2071 78.1016L38.1964 78.0901L37.7838 77.6964V78.3111L38.0339 78.5483L38.2413 78.7463L42.6354 82.9181L43.048 83.3118L43.1528 83.4108L43.2512 83.2566L43.3987 83.0286L43.1378 82.78ZM106.998 85.4553C107.004 85.6073 107.015 85.7615 107.025 85.9158H122.147V85.4553H106.998ZM43.1378 82.78L40.4779 80.2566L40.4715 80.252L40.4629 80.2451L40.4565 80.2382C40.3731 80.1737 40.2897 80.107 40.2085 80.0379C40.1871 80.0218 40.1679 80.0057 40.1486 79.9895C40.1379 79.9803 40.1293 79.9734 40.1187 79.9642C40.1144 79.9619 40.1122 79.9573 40.1079 79.955C40.0481 79.9044 39.9861 79.8514 39.9263 79.7984C39.8963 79.7754 39.8685 79.7501 39.8386 79.7248C39.7573 79.6534 39.6761 79.5797 39.5948 79.506C39.5093 79.4278 39.4238 79.3495 39.3383 79.2689C39.3361 79.2666 39.3318 79.2643 39.3297 79.262C39.3126 79.2459 39.2975 79.2298 39.2805 79.2159C39.1992 79.1377 39.118 79.0594 39.0367 78.9765C38.9683 78.9097 38.8999 78.8407 38.8336 78.7739C38.7716 78.7117 38.7095 78.6496 38.6497 78.5828L38.6369 78.569C38.592 78.523 38.5471 78.4746 38.5001 78.424C38.4551 78.3779 38.4124 78.3296 38.3696 78.2812C38.3247 78.2352 38.2819 78.1868 38.2413 78.1385L38.2071 78.1016L38.1964 78.0901L37.7838 77.6964V78.3111L38.0339 78.5483L38.2413 78.7463L42.6354 82.9181L43.048 83.3118L43.1528 83.4108L43.2512 83.2566L43.3987 83.0286L43.1378 82.78ZM43.1378 82.78L40.4779 80.2566L40.4715 80.252L40.4629 80.2451L40.4565 80.2382C40.3731 80.1737 40.2897 80.107 40.2085 80.0379C40.1871 80.0218 40.1679 80.0057 40.1486 79.9895C40.1379 79.9803 40.1293 79.9734 40.1187 79.9642C40.1144 79.9619 40.1122 79.9573 40.1079 79.955C40.0481 79.9044 39.9861 79.8514 39.9263 79.7984C39.8963 79.7754 39.8685 79.7501 39.8386 79.7248C39.7573 79.6534 39.6761 79.5797 39.5948 79.506C39.5093 79.4278 39.4238 79.3495 39.3383 79.2689C39.3361 79.2666 39.3318 79.2643 39.3297 79.262C39.3126 79.2459 39.2975 79.2298 39.2805 79.2159C39.1992 79.1377 39.118 79.0594 39.0367 78.9765C38.9683 78.9097 38.8999 78.8407 38.8336 78.7739C38.7716 78.7117 38.7095 78.6496 38.6497 78.5828L38.6369 78.569C38.592 78.523 38.5471 78.4746 38.5001 78.424C38.4551 78.3779 38.4124 78.3296 38.3696 78.2812C38.3247 78.2352 38.2819 78.1868 38.2413 78.1385L38.2071 78.1016L38.1964 78.0901L37.7838 77.6964V78.3111L38.0339 78.5483L38.2413 78.7463L42.6354 82.9181L43.048 83.3118L43.1528 83.4108L43.2512 83.2566L43.3987 83.0286L43.1378 82.78ZM118.503 85.4553H106.998C107.004 85.6073 107.015 85.7615 107.025 85.9158H118.803L118.503 85.4553Z" fill="#736CC5"/>
<path d="M43.1378 82.78L43.4829 82.4181L43.482 82.4172L43.1378 82.78ZM40.4779 80.2566L40.822 79.8939L40.7963 79.8694L40.7673 79.8489L40.4779 80.2566ZM40.4715 80.252L40.1572 80.6409L40.1693 80.6507L40.182 80.6597L40.4715 80.252ZM40.4629 80.2451L40.0953 80.5841L40.1202 80.611L40.1487 80.634L40.4629 80.2451ZM40.4565 80.2382L40.8241 79.8993L40.7956 79.8683L40.7623 79.8426L40.4565 80.2382ZM40.2085 80.0379L40.5324 79.657L40.521 79.6473L40.5091 79.6383L40.2085 80.0379ZM40.1486 79.9895L39.8234 80.3693L39.8271 80.3725L40.1486 79.9895ZM40.1187 79.9642L40.4457 79.586L40.4041 79.55L40.3557 79.524L40.1187 79.9642ZM40.1079 79.955L39.7848 80.3366L39.8249 80.3705L39.8711 80.3954L40.1079 79.955ZM39.9263 79.7984L40.2577 79.424L40.2447 79.4125L40.2309 79.402L39.9263 79.7984ZM39.8386 79.7248L39.5085 80.1004L39.5158 80.1067L39.8386 79.7248ZM39.5948 79.506L39.2572 79.8749L39.2591 79.8766L39.5948 79.506ZM39.3383 79.2689L38.9761 79.6136L38.9855 79.6235L38.9953 79.6328L39.3383 79.2689ZM39.3297 79.262L39.7007 78.9268L39.6871 78.9118L39.6724 78.8979L39.3297 79.262ZM39.2805 79.2159L38.9338 79.5762L38.949 79.5909L38.9654 79.6042L39.2805 79.2159ZM39.0367 78.9765L39.3939 78.6264L39.386 78.6188L39.0367 78.9765ZM38.8336 78.7739L39.1884 78.4216L39.1876 78.4208L38.8336 78.7739ZM38.6497 78.5828L39.0221 78.2491L39.0159 78.2424L38.6497 78.5828ZM38.6369 78.569L39.0032 78.2285L38.9948 78.2199L38.6369 78.569ZM38.5001 78.424L38.8668 78.0838L38.8577 78.0745L38.5001 78.424ZM38.3696 78.2812L38.7439 77.9498L38.736 77.9408L38.7276 77.9321L38.3696 78.2812ZM38.2413 78.1385L38.6242 77.8169L38.6163 77.8075L38.608 77.7986L38.2413 78.1385ZM38.2071 78.1016L38.5739 77.7617L38.5726 77.7604L38.2071 78.1016ZM38.1964 78.0901L38.5618 77.7488L38.552 77.7383L38.5415 77.7284L38.1964 78.0901ZM37.7838 77.6964L38.1289 77.3347L38.128 77.3338L37.7838 77.6964ZM37.7838 78.3111L37.4395 78.6737L37.4398 78.674L37.7838 78.3111ZM38.0339 78.5483L38.3792 78.1867L38.3779 78.1854L38.0339 78.5483ZM38.2413 78.7463L37.896 79.1079L37.897 79.1089L38.2413 78.7463ZM42.6354 82.9181L42.9805 82.5564L42.9796 82.5555L42.6354 82.9181ZM43.048 83.3118L42.7028 83.6736L42.7047 83.6753L43.048 83.3118ZM43.1528 83.4108L42.8095 83.7743L43.2492 84.1896L43.5744 83.6796L43.1528 83.4108ZM43.2512 83.2566L42.8314 82.9849L42.8296 82.9877L43.2512 83.2566ZM43.3987 83.0286L43.8184 83.3003L44.0435 82.9526L43.7437 82.6667L43.3987 83.0286ZM106.998 85.4553V84.9553H106.476L106.498 85.4766L106.998 85.4553ZM107.025 85.9158L106.527 85.9502L106.559 86.4158H107.025V85.9158ZM122.147 85.9158V86.4158H122.647V85.9158H122.147ZM122.147 85.4553H122.647V84.9553H122.147V85.4553ZM118.503 85.4553L118.923 85.1828L118.775 84.9553H118.503V85.4553ZM118.803 85.9158V86.4158H119.724L119.222 85.6433L118.803 85.9158ZM32.7547 72.9213L32.4104 73.2839L32.4104 73.2839L32.7547 72.9213ZM28.5574 68.936L28.2129 69.2984L28.2131 69.2986L28.5574 68.936ZM28.2751 69.2813L27.9304 69.6436L27.9307 69.6438L28.2751 69.2813ZM32.2522 73.0595L31.9078 73.422L31.9079 73.4221L32.2522 73.0595ZM43.482 82.4172L40.822 79.8939L40.1338 80.6194L42.7937 83.1427L43.482 82.4172ZM40.7673 79.8489L40.7609 79.8443L40.182 80.6597L40.1885 80.6643L40.7673 79.8489ZM40.7857 79.8631L40.7772 79.8562L40.1487 80.634L40.1572 80.6409L40.7857 79.8631ZM40.8305 79.9062L40.8241 79.8993L40.089 80.5772L40.0953 80.5841L40.8305 79.9062ZM40.7623 79.8426C40.6833 79.7815 40.6062 79.7198 40.5324 79.657L39.8845 80.4188C39.9732 80.4942 40.063 80.566 40.1508 80.6338L40.7623 79.8426ZM40.5091 79.6383C40.4999 79.6314 40.4904 79.6236 40.4701 79.6066L39.8271 80.3725C39.8453 80.3877 39.8743 80.4121 39.9079 80.4374L40.5091 79.6383ZM40.4739 79.6098C40.4366 79.5779 40.4689 79.6061 40.4457 79.586L39.7916 80.3424C39.8002 80.3499 39.8077 80.3561 39.8127 80.3603C39.8182 80.3649 39.8206 80.3669 39.8234 80.3693L40.4739 79.6098ZM40.3557 79.524C40.4002 79.5479 40.4321 79.5741 40.4513 79.5914C40.4608 79.5999 40.468 79.6072 40.4721 79.6114C40.4742 79.6136 40.4759 79.6153 40.4768 79.6163C40.4776 79.6172 40.4783 79.6179 40.4779 79.6175C40.4779 79.6174 40.4768 79.6163 40.4756 79.615C40.4742 79.6136 40.4722 79.6114 40.4696 79.6088C40.4646 79.6037 40.4565 79.5956 40.4462 79.5862C40.4253 79.5673 40.3914 79.5398 40.3448 79.5147L39.8711 80.3954C39.8266 80.3714 39.7946 80.3453 39.7755 80.328C39.7659 80.3194 39.7587 80.3121 39.7545 80.3078C39.7524 80.3057 39.7507 80.3039 39.7498 80.3029C39.749 80.3021 39.7483 80.3014 39.7487 80.3017C39.7487 80.3018 39.7498 80.3029 39.751 80.3042C39.7523 80.3056 39.7544 80.3078 39.7569 80.3104C39.7619 80.3154 39.77 80.3235 39.7803 80.3329C39.8012 80.3518 39.835 80.3793 39.8817 80.4045L40.3557 79.524ZM40.431 79.5734C40.372 79.5234 40.3133 79.4733 40.2577 79.424L39.5949 80.1728C39.6589 80.2295 39.7242 80.2853 39.7848 80.3366L40.431 79.5734ZM40.2309 79.402C40.2126 79.3879 40.2109 79.3848 40.1613 79.3429L39.5158 80.1067C39.5262 80.1154 39.5799 80.1629 39.6216 80.1949L40.2309 79.402ZM40.1686 79.3492C40.0908 79.2808 40.0125 79.2098 39.9305 79.1355L39.2591 79.8766C39.3397 79.9496 39.4239 80.026 39.5085 80.1004L40.1686 79.3492ZM39.9324 79.1372C39.8465 79.0586 39.7636 78.9827 39.6812 78.905L38.9953 79.6328C39.0839 79.7162 39.1721 79.7969 39.2572 79.8748L39.9324 79.1372ZM39.7004 78.9242C39.6868 78.9098 39.6745 78.8986 39.6653 78.8906C39.6561 78.8826 39.6481 78.8763 39.6425 78.8719C39.6369 78.8675 39.6322 78.8641 39.6296 78.8622C39.6282 78.8612 39.627 78.8604 39.6263 78.8599C39.626 78.8596 39.6257 78.8594 39.6255 78.8592C39.6254 78.8592 39.6253 78.8591 39.6252 78.8591C39.6252 78.859 39.6252 78.859 39.6251 78.859C39.6247 78.8587 39.6265 78.86 39.6289 78.8617C39.6313 78.8635 39.6358 78.8669 39.6414 78.8713C39.647 78.8757 39.6551 78.8822 39.6645 78.8907C39.6738 78.8991 39.6866 78.9112 39.7007 78.9268L38.9587 79.5972C38.9733 79.6134 38.9867 79.6261 38.9966 79.635C39.0067 79.6441 39.0155 79.6512 39.0218 79.6562C39.0281 79.6612 39.0334 79.6651 39.0366 79.6675C39.0397 79.6698 39.0424 79.6716 39.0427 79.6719C39.0438 79.6727 39.0423 79.6716 39.0407 79.6704C39.0389 79.6691 39.035 79.6662 39.0301 79.6624C39.0252 79.6587 39.0179 79.6529 39.0094 79.6454C39.0009 79.6381 38.9892 79.6274 38.9761 79.6136L39.7004 78.9242ZM39.6724 78.8979C39.6716 78.8972 39.6702 78.8958 39.6668 78.8925C39.6646 78.8903 39.6581 78.8839 39.6529 78.8789C39.6415 78.8679 39.6212 78.8485 39.5956 78.8277L38.9654 79.6042C38.9608 79.6004 38.9576 79.5976 38.9564 79.5964C38.9552 79.5954 38.9552 79.5953 38.9572 79.5973C38.9582 79.5983 38.9595 79.5995 38.9612 79.6012C38.9625 79.6025 38.9655 79.6054 38.9676 79.6074C38.9723 79.6121 38.9792 79.6187 38.987 79.6261L39.6724 78.8979ZM39.6272 78.8557C39.5454 78.7769 39.4692 78.7034 39.3938 78.6265L38.6797 79.3265C38.7667 79.4153 38.853 79.4984 38.9338 79.5762L39.6272 78.8557ZM39.386 78.6188C39.321 78.5552 39.2554 78.4891 39.1884 78.4216L38.4788 79.1262C38.5443 79.1922 38.6157 79.2643 38.6874 79.3343L39.386 78.6188ZM39.1876 78.4208C39.1241 78.3571 39.0715 78.3043 39.0221 78.2491L38.2773 78.9165C38.3475 78.9948 38.419 79.0663 38.4796 79.127L39.1876 78.4208ZM39.0159 78.2424L39.0031 78.2286L38.2706 78.9094L38.2835 78.9232L39.0159 78.2424ZM38.9948 78.2199C38.955 78.1791 38.9143 78.1353 38.8667 78.0839L38.1335 78.764C38.1798 78.8139 38.2289 78.8668 38.2789 78.9181L38.9948 78.2199ZM38.8577 78.0745C38.8229 78.0389 38.7885 78.0001 38.7439 77.9498L37.9952 78.6126C38.0363 78.659 38.0873 78.717 38.1425 78.7734L38.8577 78.0745ZM38.7276 77.9321C38.6936 77.8974 38.6593 77.8588 38.6242 77.8169L37.8584 78.46C37.9044 78.5149 37.9557 78.573 38.0116 78.6303L38.7276 77.9321ZM38.608 77.7986L38.5739 77.7617L37.8404 78.4415L37.8745 78.4783L38.608 77.7986ZM38.5726 77.7604L38.5618 77.7488L37.8309 78.4314L37.8417 78.4429L38.5726 77.7604ZM38.5415 77.7284L38.1289 77.3347L37.4386 78.0581L37.8512 78.4518L38.5415 77.7284ZM37.2838 77.6964V78.3111H38.2838V77.6964H37.2838ZM37.4398 78.674L37.6899 78.9111L38.3779 78.1854L38.1278 77.9483L37.4398 78.674ZM37.6886 78.9099L37.896 79.1079L38.5866 78.3847L38.3792 78.1867L37.6886 78.9099ZM37.897 79.1089L42.2911 83.2807L42.9796 82.5555L38.5855 78.3837L37.897 79.1089ZM42.2902 83.2799L42.7028 83.6736L43.3931 82.9501L42.9805 82.5564L42.2902 83.2799ZM42.7047 83.6753L42.8095 83.7743L43.4961 83.0473L43.3913 82.9483L42.7047 83.6753ZM43.5744 83.6796L43.6727 83.5254L42.8296 82.9877L42.7312 83.142L43.5744 83.6796ZM43.6709 83.5282L43.8184 83.3003L42.9789 82.7569L42.8314 82.9849L43.6709 83.5282ZM43.7437 82.6667L43.4828 82.4181L42.7928 83.1419L43.0537 83.3905L43.7437 82.6667ZM106.498 85.4766C106.505 85.6362 106.516 85.7971 106.527 85.9502L107.524 85.8813C107.514 85.7259 107.503 85.5783 107.497 85.434L106.498 85.4766ZM107.025 86.4158H122.147V85.4158H107.025V86.4158ZM122.647 85.9158V85.4553H121.647V85.9158H122.647ZM122.147 84.9553H106.998V85.9553H122.147V84.9553ZM118.503 84.9553H106.998V85.9553H118.503V84.9553ZM107.025 86.4158H118.803V85.4158H107.025V86.4158ZM119.222 85.6433L118.923 85.1828L118.084 85.7278L118.384 86.1883L119.222 85.6433ZM33.099 72.5588L28.9017 68.5734L28.2131 69.2986L32.4104 73.2839L33.099 72.5588ZM28.9019 68.5736C28.1489 67.8578 27.172 67.4571 26.1538 67.4575L26.1542 68.4575C26.9062 68.4572 27.6388 68.7526 28.2129 69.2984L28.9019 68.5736ZM26.1544 68.918C26.8024 68.9174 27.4345 69.1718 27.9304 69.6436L28.6197 68.9191C27.9447 68.277 27.068 67.9172 26.1536 67.918L26.1544 68.918ZM27.9307 69.6438L31.9078 73.422L32.5965 72.697L28.6194 68.9188L27.9307 69.6438ZM31.9079 73.4221L37.4395 78.6737L38.128 77.9485L32.5964 72.6969L31.9079 73.4221ZM38.128 77.3338L33.0989 72.5588L32.4104 73.2839L37.4395 78.059L38.128 77.3338ZM13.5791 67.9575V66.9575H12.3145L12.6061 68.188L13.5791 67.9575ZM13.6882 68.418L12.7152 68.6485L12.8975 69.418H13.6882V68.418ZM122.605 85.4645L122.518 86.4607L122.525 86.4614L122.532 86.4619L122.605 85.4645ZM47.1662 85.4553V84.4553L47.1649 84.4553L47.1662 85.4553ZM45.1755 84.7093L45.8253 83.9492L45.8176 83.9426L45.8098 83.9362L45.1755 84.7093ZM45.0451 84.5919L45.7416 83.8743L45.734 83.867L45.0451 84.5919ZM43.5527 83.1737L44.2415 82.4488L44.2384 82.4458L43.5527 83.1737ZM38.6797 78.5483L39.3688 77.8237L39.3686 77.8235L38.6797 78.5483ZM38.2413 78.1316L38.9302 77.4068L38.9158 77.393L38.9008 77.3799L38.2413 78.1316ZM7.75679 67.9575L7.75679 66.9575L7.75527 66.9575L7.75679 67.9575ZM4.12183 71.8715L3.12183 71.8702V71.8715H4.12183ZM4.12183 145.086H3.12183L3.12183 145.087L4.12183 145.086ZM7.75679 149L7.75527 150H7.75679V149ZM122.365 149V150H122.367L122.365 149ZM126 145.086L127 145.087V145.086H126ZM126 89.3693H127V89.3677L126 89.3693ZM125.572 145.086L126.572 145.087V145.086H125.572ZM122.365 148.54V149.54H122.366L122.365 148.54ZM7.75678 148.54L7.75547 149.54H7.75678V148.54ZM4.54946 145.086H3.54946L3.54946 145.087L4.54946 145.086ZM4.54946 71.8715L3.54946 71.8703V71.8715H4.54946ZM7.75678 68.418V67.418L7.75547 67.418L7.75678 68.418ZM44.7607 84.9373L44.0722 85.6625L44.0745 85.6647L44.7607 84.9373ZM47.1662 85.9158L47.163 86.9158H47.1662V85.9158ZM122.365 85.9158V86.9158L122.375 86.9157L122.365 85.9158ZM122.605 85.9273L122.499 86.9217L122.511 86.923L122.523 86.924L122.605 85.9273ZM125.572 89.3693H126.572V89.3681L125.572 89.3693ZM26.154 66.9575H13.5791V68.9575H26.154V66.9575ZM12.6061 68.188L12.7152 68.6485L14.6613 68.1874L14.5522 67.7269L12.6061 68.188ZM13.6882 69.418H26.154V67.418H13.6882V69.418ZM122.692 84.4683C122.574 84.4581 122.465 84.4553 122.365 84.4553V86.4553C122.428 86.4553 122.476 86.4571 122.518 86.4607L122.692 84.4683ZM122.365 84.4553H47.1662V86.4553H122.365V84.4553ZM47.1649 84.4553C46.6886 84.4559 46.216 84.2832 45.8253 83.9492L44.5257 85.4695C45.2673 86.1033 46.1982 86.4566 47.1675 86.4553L47.1649 84.4553ZM45.8098 83.9362C45.7923 83.9219 45.7708 83.9026 45.7416 83.8743L44.3487 85.3095C44.4049 85.3641 44.4689 85.4231 44.5413 85.4825L45.8098 83.9362ZM45.734 83.867L44.2415 82.4488L42.8638 83.8986L44.3563 85.3168L45.734 83.867ZM44.2384 82.4458L44.0844 82.3008L42.713 83.7565L42.8669 83.9016L44.2384 82.4458ZM41.1457 79.5136L39.3688 77.8237L37.9905 79.2729L39.7674 80.9628L41.1457 79.5136ZM39.3686 77.8235L38.9302 77.4068L37.5523 78.8564L37.9907 79.2731L39.3686 77.8235ZM38.9008 77.3799L38.8667 77.35L37.5476 78.8533L37.5817 78.8832L38.9008 77.3799ZM26.154 66.9575L7.75679 66.9575L7.75679 68.9575L26.154 68.9575L26.154 66.9575ZM7.75527 66.9575C6.50211 66.9594 5.31716 67.4969 4.45525 68.425L5.92073 69.786C6.42161 69.2467 7.08421 68.9585 7.75831 68.9575L7.75527 66.9575ZM4.45525 68.425C3.59564 69.3506 3.12351 70.5907 3.12183 71.8702L5.12183 71.8728C5.12287 71.0771 5.41756 70.3278 5.92073 69.786L4.45525 68.425ZM3.12183 71.8715V145.086H5.12183V71.8715H3.12183ZM3.12183 145.087C3.12351 146.367 3.59564 147.607 4.45525 148.533L5.92073 147.171C5.41756 146.63 5.12287 145.88 5.12183 145.085L3.12183 145.087ZM4.45525 148.533C5.31715 149.461 6.5021 149.998 7.75527 150L7.75831 148C7.08421 147.999 6.42161 147.711 5.92073 147.171L4.45525 148.533ZM7.75679 150H122.365V148H7.75679V150ZM122.367 150C123.62 149.998 124.805 149.461 125.667 148.533L124.201 147.171C123.7 147.711 123.038 147.999 122.364 148L122.367 150ZM125.667 148.533C126.526 147.607 126.998 146.367 127 145.087L125 145.085C124.999 145.88 124.704 146.63 124.201 147.171L125.667 148.533ZM127 145.086V89.3693H125V145.086H127ZM127 89.3677C126.998 88.1431 126.565 86.9532 125.771 86.0403L124.262 87.3526C124.729 87.8892 124.999 88.6098 125 89.3709L127 89.3677ZM125.771 86.0403C124.976 85.1253 123.872 84.5541 122.677 84.4671L122.532 86.4619C123.177 86.5088 123.797 86.8181 124.262 87.3526L125.771 86.0403ZM124.572 145.085C124.572 145.758 124.322 146.391 123.899 146.846L125.365 148.207C126.144 147.368 126.571 146.245 126.572 145.087L124.572 145.085ZM123.899 146.846C123.478 147.299 122.924 147.539 122.364 147.54L122.366 149.54C123.506 149.538 124.583 149.049 125.365 148.207L123.899 146.846ZM122.365 147.54H7.75678V149.54H122.365V147.54ZM7.75809 147.54C7.19738 147.539 6.64345 147.299 6.22275 146.846L4.75727 148.207C5.5391 149.049 6.61555 149.538 7.75547 149.54L7.75809 147.54ZM6.22275 146.846C5.79975 146.391 5.55022 145.758 5.54946 145.085L3.54946 145.087C3.55077 146.245 3.97774 147.368 4.75727 148.207L6.22275 146.846ZM5.54946 145.086V71.8715H3.54946V145.086H5.54946ZM5.54946 71.8726C5.55022 71.199 5.79975 70.5667 6.22275 70.1112L4.75727 68.7502C3.97774 69.5896 3.55077 70.7128 3.54946 71.8703L5.54946 71.8726ZM6.22275 70.1112C6.64345 69.6582 7.19738 69.4187 7.75809 69.418L7.75547 67.418C6.61555 67.4195 5.53909 67.9084 4.75727 68.7502L6.22275 70.1112ZM7.75678 69.418H26.154V67.418H7.75678V69.418ZM42.4643 84.1361L44.0722 85.6625L45.4492 84.212L43.8413 82.6856L42.4643 84.1361ZM44.0745 85.6647C44.9182 86.4606 46.0144 86.9121 47.163 86.9158L47.1694 84.9158C46.5476 84.9138 45.9349 84.6702 45.4469 84.2099L44.0745 85.6647ZM47.1662 86.9158H122.365V84.9158H47.1662V86.9158ZM122.375 86.9157C122.416 86.9153 122.458 86.9173 122.499 86.9217L122.71 84.9329C122.592 84.9203 122.474 84.9146 122.355 84.9158L122.375 86.9157ZM122.523 86.924C123.056 86.9674 123.571 87.2267 123.958 87.6751L125.472 86.3691C124.758 85.5412 123.766 85.0185 122.686 84.9306L122.523 86.924ZM123.958 87.6751C124.346 88.1255 124.572 88.7302 124.572 89.3705L126.572 89.3681C126.571 88.2668 126.184 87.195 125.472 86.3691L123.958 87.6751ZM124.572 89.3693L124.572 145.086H126.572L126.572 89.3693L124.572 89.3693Z" fill="#3E3E3E" mask="url(#path-10-inside-1_1_117)"/>
</g>
<path d="M116.502 146.122H12.5505C11.6481 146.121 10.7829 145.734 10.1447 145.047C9.50658 144.36 9.14763 143.429 9.14661 142.457V76.0501C9.14763 75.0783 9.50659 74.1467 10.1447 73.4596C10.7829 72.7725 11.6481 72.386 12.5505 72.3849C13.3487 72.3858 14.114 72.7277 14.6784 73.3355C15.2429 73.9432 15.5604 74.7672 15.5612 75.6267V138.082C15.5622 138.993 15.8986 139.866 16.4967 140.51C17.0947 141.154 17.9056 141.516 18.7513 141.517H116.151C116.635 141.512 117.107 141.68 117.491 141.997C117.875 142.314 118.15 142.76 118.271 143.264C118.407 143.743 118.39 144.256 118.223 144.723C118.056 145.19 117.749 145.583 117.35 145.839C117.097 146.017 116.804 146.114 116.502 146.122Z" fill="#66FFB6" fill-opacity="0.29"/>
<defs>
<filter id="filter0_d_1_117" x="0.121826" y="67.9575" width="129.878" height="89.0425" filterUnits="userSpaceOnUse" color-interpolation-filters="sRGB">
<feFlood flood-opacity="0" result="BackgroundImageFix"/>
<feColorMatrix in="SourceAlpha" type="matrix" values="0 0 0 0 0 0 0 0 0 0 0 0 0 0 0 0 0 0 127 0" result="hardAlpha"/>
<feOffset dy="4"/>
<feGaussianBlur stdDeviation="2"/>
<feComposite in2="hardAlpha" operator="out"/>
<feColorMatrix type="matrix" values="0 0 0 0 0 0 0 0 0 0 0 0 0 0 0 0 0 0 0.25 0"/>
<feBlend mode="normal" in2="BackgroundImageFix" result="effect1_dropShadow_1_117"/>
<feBlend mode="normal" in="SourceGraphic" in2="effect1_dropShadow_1_117" result="shape"/>
</filter>
</defs>
</svg>
